<?xml version="1.0" encoding="UTF-8" standalone="no"?>
<!-- Generator: Adobe Illustrator 18.1.1, SVG Export Plug-In . SVG Version: 6.00 Build 0)  -->

<svg
   xmlns:dc="http://purl.org/dc/elements/1.1/"
   xmlns:cc="http://creativecommons.org/ns#"
   xmlns:rdf="http://www.w3.org/1999/02/22-rdf-syntax-ns#"
   xmlns:svg="http://www.w3.org/2000/svg"
   xmlns="http://www.w3.org/2000/svg"
   xmlns:sodipodi="http://sodipodi.sourceforge.net/DTD/sodipodi-0.dtd"
   xmlns:inkscape="http://www.inkscape.org/namespaces/inkscape"
   version="1.1"
   id="Layer_1"
   x="0px"
   y="0px"
   viewBox="0 0 100 99.999997"
   enable-background="new 0 0 93.5 103.8"
   xml:space="preserve"
   sodipodi:docname="innersource.svg"
   width="100"
   height="100"
   inkscape:version="0.92.4 (5da689c313, 2019-01-14)"
   inkscape:export-filename="C:\workspace\gh-poulad\cultofthepartyparrot.com\parrots\innersource-commons\innersource.png"
   inkscape:export-xdpi="122.88"
   inkscape:export-ydpi="122.88"><metadata
   id="metadata36"><rdf:RDF><cc:Work
       rdf:about=""><dc:format>image/svg+xml</dc:format><dc:type
         rdf:resource="http://purl.org/dc/dcmitype/StillImage" /><dc:title /></cc:Work></rdf:RDF></metadata><defs
   id="defs34" /><sodipodi:namedview
   pagecolor="#ffffff"
   bordercolor="#666666"
   borderopacity="1"
   objecttolerance="10"
   gridtolerance="10"
   guidetolerance="10"
   inkscape:pageopacity="0"
   inkscape:pageshadow="2"
   inkscape:window-width="2061"
   inkscape:window-height="1406"
   id="namedview32"
   showgrid="false"
   inkscape:zoom="2.273603"
   inkscape:cx="-38.797037"
   inkscape:cy="51.900002"
   inkscape:window-x="88"
   inkscape:window-y="-11"
   inkscape:window-maximized="1"
   inkscape:current-layer="Layer_1" />



<g
   id="g858"
   transform="matrix(0.96339114,0,0,0.96339114,4.9614642,-1.6600001e-7)"><polygon
     id="polygon2"
     points="7.3,31.8 7.3,72.9 44.3,94.7 85.1,71.9 85,31.8 46.7,10.2 "
     style="fill:#ffffff" /><path
     id="path4"
     d="M 92,26.2 48.3,0.9 46.8,0 45.3,0.9 1.5,26.1 0,27 v 1.7 20 3 23.3 1.7 l 1.5,0.9 43.7,25.3 1.5,0.9 1.5,-0.9 L 92,77.7 93.5,76.8 V 75.1 28.7 27 Z M 15.2,35.3 46.8,17.1 78.4,35.4 V 68.6 L 46.7,86.7 15.2,68.5 v -19.2 0 z M 46.8,13.6 12.2,33.5 v 15.7 0 0 21 -21 0 0 0 -15.7 l 34.6,-19.9 34.6,20 z M 46.7,100.3 3,75 46.7,100.3 90.5,75.1 Z"
     inkscape:connector-curvature="0"
     style="fill:#ffffff" /><g
     id="g26">
	<g
   id="g24">
		<path
   id="path6"
   d="m 30.4,72.7 c -0.6,0.5 -1.2,1.1 -1.9,1.6 -1.8,1.4 -3.6,2.9 -5.4,4.3 -0.5,0.4 -0.5,0.4 0.1,0.7 0.5,0.3 0.9,0.5 1.4,0.8 0.7,0.4 0.7,0.4 1.2,-0.2 1.3,-1.4 2.5,-2.9 3.7,-4.4 2.1,-2.5 4.2,-5 6.2,-7.5 0.1,-0.1 0.2,-0.4 0.2,-0.6 0,-0.1 -0.3,-0.2 -0.4,-0.2 -1.7,-0.2 -3.3,-0.5 -5,-0.7 -3.9,-0.6 -7.8,-1.1 -11.7,-1.7 -2.8,-0.4 -5.5,-0.9 -8.2,-1.4 -0.4,-0.1 -0.6,0 -0.6,0.4 0,1.3 0,2.5 0,3.8 0,0.4 0.2,0.5 0.5,0.5 2.1,0.1 4.2,0.3 6.3,0.4 4.9,0.2 9.7,0.4 14.6,0.6 0.9,0 1.7,0.1 2.7,0.1 -0.4,0.6 -0.9,1 -1.6,1.1 -1,0.1 -2,0.2 -2.9,0.3 -5.3,0.4 -10.6,0.7 -15.9,1.1 -0.8,0.1 -1.6,0.1 -2.4,0.2 0.1,0.2 0.2,0.4 0.4,0.4 1.2,0.7 2.4,1.4 3.5,2.1 0.5,0.3 0.9,0.4 1.5,0.3 2,-0.4 4,-0.9 6,-1.3 3,-0.6 6,-1.3 9,-2 0,0 0,0 0,0.1 -0.4,0.3 -0.7,0.5 -1.1,0.8 0,-0.1 0,-0.3 0,-0.4 -4,1.5 -8,3 -12.1,4.5 0.2,0.2 0.3,0.3 0.5,0.4 0.4,0.3 0.8,0.5 1.2,0.7 0.4,0.3 0.7,0.2 1.1,0 1.4,-0.8 2.8,-1.6 4.2,-2.3 1.7,-0.8 3.3,-1.7 4.9,-2.5 z m 10.5,-25 c -0.3,-0.1 -0.5,-0.2 -0.8,-0.3 -2,-1 -3.9,-1.9 -5.8,-2.9 -4.5,-2.3 -8.9,-5 -12.7,-8.3 -2.1,-1.9 -4.1,-3.9 -5.2,-6.5 -0.2,-0.4 -0.5,-0.3 -0.7,-0.1 -1.5,0.9 -3.1,1.8 -4.6,2.7 -0.5,0.3 -0.5,0.4 -0.2,0.8 1.2,1.3 2.3,2.7 3.6,3.9 3.4,3.1 7.2,5.6 11.2,7.9 4.8,2.8 9.9,5.1 15,7.3 0.5,0.2 0.7,0.5 0.7,1.1 0.1,4.4 -0.6,8.8 -1,13.2 -0.3,2.8 -0.5,5.6 -0.4,8.4 0.2,5.4 1.7,10.5 4.5,15.2 0.3,0.6 0.7,0.8 1.4,0.8 2.1,0 4.3,-0.1 6.4,0 1.4,0.1 2.4,-0.8 3.6,-1.4 -0.4,-0.4 -0.8,-0.8 -1.2,-1.1 -3.3,-2.9 -5.9,-6.3 -7.8,-10.3 -2.3,-4.7 -3.1,-9.8 -3.5,-15 -0.3,-3.9 -0.5,-7.8 -1,-11.7 C 41.9,47.1 40.5,43 38.4,39.2 38.1,38.8 37.7,38.4 37.3,38.1 36.6,37.6 35.8,37.2 35.1,36.8 32.9,35.4 30.7,34 29,32.1 28.7,31.7 28.4,31.3 28.2,30.8 28,30.3 28.3,30 28.8,30.1 c 1,0.2 1.8,0.6 2.6,1.1 2.8,1.9 5.1,4.3 7,7.1 2.8,4.1 4.5,8.6 5.5,13.5 0.9,4 1.6,7.9 2.5,11.9 2.2,9.3 7.4,16.5 15.4,21.8 0.5,0.3 0.9,0.3 1.4,0 1.5,-0.9 3,-1.8 4.5,-2.6 0.2,-0.1 0.3,-0.2 0.5,-0.4 C 67.5,82.2 67,81.9 66.4,81.6 60.8,78.7 56.3,74.7 52.9,69.3 50.6,65.6 49.1,61.7 47.9,57.5 46.9,53.9 45.9,50.3 44.7,46.8 42.9,41.5 40,36.7 35.8,32.8 33.5,30.7 31,28.8 28,27.7 26.7,27.2 25.4,26.8 24,27 c -1.7,0.2 -2.4,1.3 -1.9,2.9 0,0.1 0.1,0.2 0.1,0.4 0.6,1.5 1.6,2.6 2.6,3.7 2.4,2.4 5.1,4.3 8.1,6 2.1,1.2 4.2,2.3 6.3,3.5 0.5,0.3 0.8,0.6 0.9,1.2 0.2,0.9 0.4,1.8 0.6,2.7 0.2,-0.2 0.2,0 0.2,0.3 z m 15.8,8.8 c 0,0 0,0 0,0 -0.1,-0.1 -0.2,-0.2 -0.2,-0.3 -1,-3.6 -1.3,-7.4 -1.6,-11.1 -0.2,-3.4 -0.4,-6.9 -0.9,-10.3 -1,-7.9 -4.6,-14.6 -10.5,-20 -1.1,-1 -1,-1.1 -2.4,-0.2 -0.1,0 -0.1,0.1 -0.2,0.1 -1.7,1 -3.3,1.9 -5,2.9 -0.4,0.2 -0.4,0.3 0,0.6 0.3,0.2 0.6,0.5 1,0.7 4.2,2.8 7.6,6.4 10.2,10.7 2.2,3.7 3.5,7.7 4.4,11.9 0.8,3.8 1.5,7.6 2.4,11.4 1.1,5 3.1,9.6 6.3,13.6 1.9,2.5 4.1,4.7 6.8,6.2 0.7,0.4 1.4,0.6 2.2,0.8 0.6,0.1 1,-0.3 0.8,-0.9 C 69.9,72.4 69.8,72.2 69.7,72 69,71.2 68.4,70.4 67.6,69.8 65.8,68.2 63.8,66.9 61.7,65.7 60.4,65 59.3,64 58.8,62.5 58.6,62 58.3,61.5 58.1,61 c -0.2,-0.4 -0.3,-0.7 -0.5,-1.1 0.4,0.1 0.8,0.3 1.1,0.4 4.1,2.1 8.1,4.3 11.6,7.3 1.7,1.4 3.3,2.9 4.4,4.8 0.4,0.6 0.6,1.3 0.6,2 0,0.7 -0.4,1.3 -1.1,1.4 -0.7,0.1 -1.4,0.2 -2.1,0.1 -2,-0.2 -3.8,-1 -5.5,-2 C 62.1,71.2 58.7,67.5 56,62.9 53.9,59.2 52.5,55.3 51.4,51.2 50.4,47.6 49.5,44 48.1,40.4 44.8,31.8 39,25.4 30.8,21.1 c -0.5,-0.2 -0.9,-0.2 -1.3,0 -1.2,0.7 -2.3,1.4 -3.5,2.1 -0.2,0.1 -0.3,0.2 -0.6,0.4 0.1,0.1 0.2,0.1 0.3,0.2 1,0.4 1.9,0.7 2.9,1.1 5.1,2.2 9.3,5.7 12.6,10.2 2.9,3.9 4.7,8.3 6.2,12.9 1.1,3.5 2.1,7 3.4,10.4 2.3,6.3 5.8,11.6 11.1,15.8 2.9,2.3 6.1,4.1 9.7,5.2 0.5,0.1 1,0.2 1.4,-0.1 2.8,-1.6 5.6,-3.3 8.4,-4.9 0.4,-0.2 0.4,-0.5 0.3,-0.8 C 81.2,72.7 80.8,71.8 80.3,71 78.6,68.6 76.5,66.7 74.2,64.9 69.7,61.4 64.7,58.8 59.6,56.3 58.7,55.9 57.9,55.5 57,55.1 56.5,54.9 56.3,55 56.4,55.5 c 0.2,0.4 0.3,0.7 0.3,1 z M 85,68 c 0,-0.3 0,-0.5 0,-0.7 0,-1.9 0,-3.9 0,-5.8 0,-0.8 -0.3,-1.3 -0.9,-1.6 C 82,58.7 80,57.4 78,56.3 73.3,53.7 68.3,51.7 63.4,49.5 61.5,48.7 59.5,47.8 57.6,47 57.3,46.9 57,46.7 57.1,46.2 c 0.2,-0.8 0.3,-1.6 0.5,-2.4 0.1,-0.3 0.2,-0.4 0.5,-0.3 0.5,0.2 1,0.4 1.6,0.6 6,2.3 12,4.6 18,7 2.3,0.9 4.5,2.1 6.8,3.1 0.5,0.2 0.6,0.2 0.6,-0.3 0,-1.6 0,-3.2 0,-4.8 0,-0.4 -0.2,-0.6 -0.5,-0.7 C 83.9,48.1 83.2,47.8 82.4,47.6 76.5,45.7 70.7,43.8 64.8,41.9 63,41.3 61.2,40.8 59.4,40.2 58.8,40 58.7,40.1 58.5,40.6 c -0.1,0.2 -0.1,0.4 -0.2,0.5 0,-0.2 0,-0.4 0.1,-0.6 1.1,-3.6 2.2,-7.2 3.3,-10.8 0.9,-3.1 1.6,-6.3 1.8,-9.6 0,-0.6 -0.1,-1 -0.7,-1.3 C 60,17.3 57.1,15.7 54.3,14.2 54.1,14.1 53.9,14 53.7,14 c 0,0 -0.1,0.1 -0.1,0.1 0.1,0.3 0.2,0.6 0.4,0.9 2.2,4.1 3.3,8.5 3.5,13.1 0.2,4.3 -0.4,8.6 -0.8,12.8 -0.4,3.4 -0.6,6.8 -0.5,10.2 0,0.4 0.1,0.8 0.1,1.2 0.1,0 0.1,0 0.2,0 0,-0.3 0.1,-0.7 0.1,-1 0,-0.4 0.2,-0.5 0.6,-0.3 5.3,2.4 10.7,4.8 15.7,7.7 3.9,2.3 7.7,4.8 10.9,8 0.4,0.5 0.7,0.9 1.2,1.3 z M 37.5,65.4 c -0.5,0.9 -0.9,1.7 -1.3,2.4 -2.5,4.6 -5.2,9 -7.4,13.8 -0.3,0.7 -0.3,0.7 0.3,1.1 1.6,0.9 3.2,1.9 4.7,2.8 0.2,0.1 0.5,0.2 0.7,0.3 0,-0.2 0.1,-0.5 0.1,-0.7 0,-2.9 0.2,-5.9 1,-8.7 1,-3.6 2.1,-7.2 3.1,-10.8 0.9,-2.9 1.8,-5.8 2.2,-8.8 C 41,56 41,56 40.3,55.7 c -4.7,-2 -9.4,-3.9 -14.1,-6 -5.6,-2.5 -10.9,-5.5 -15.8,-9.1 -0.1,-0.1 -0.3,-0.1 -0.5,-0.2 0,0.3 -0.1,0.5 -0.1,0.7 0,1.8 0,3.7 0,5.5 0,0.5 0.2,0.8 0.6,1.1 1.9,0.9 3.7,1.9 5.6,2.8 5.6,2.7 11.4,4.8 17.2,7 2,0.7 4,1.5 5.9,2.2 0.6,0.2 0.6,0.2 0.4,0.9 -0.2,0.6 -0.4,1.1 -0.6,1.7 -0.1,0.4 -0.4,0.5 -0.8,0.4 -1.3,-0.4 -2.6,-0.9 -3.9,-1.3 -8,-2.5 -16,-4.9 -23.8,-8 C 10.4,53 10.2,53 10,53 c 0,0.3 0,0.5 0,0.7 0,1.4 0,2.8 0,4.2 0,0.5 0.2,0.8 0.7,0.9 7.9,2 15.9,3.9 23.8,5.9 1,0.2 1.9,0.5 3,0.7 z m 26.9,-33 c 0.2,-0.3 0.4,-0.5 0.6,-0.7 2.1,-2.4 4.2,-4.8 6.3,-7.2 0.4,-0.4 0.4,-0.5 -0.1,-0.8 -0.8,-0.4 -1.6,-0.9 -2.4,-1.3 -0.4,-0.2 -0.6,-0.1 -0.8,0.3 -1.1,2.2 -2.2,4.4 -3.4,6.5 -1.6,3 -3.2,5.9 -4.8,8.9 -0.1,0.2 -0.1,0.4 -0.2,0.6 0.4,-0.2 0.6,-0.6 1,-0.7 0.3,-0.1 0.8,0.1 1.1,0.2 4.6,1.1 9.2,2.1 13.8,3.2 2.9,0.7 5.8,1.5 8.8,2.2 0.9,0.2 0.9,0.2 0.9,-0.7 0,-1.2 0,-2.4 0,-3.5 0,-0.4 -0.2,-0.6 -0.6,-0.6 -2.1,-0.3 -4.2,-0.7 -6.3,-1 -4.8,-0.7 -9.7,-1.4 -14.5,-2.1 -0.5,-0.1 -1,-0.2 -1.6,-0.3 0.3,-0.4 0.6,-0.8 0.8,-1.1 0.2,-0.3 0.5,-0.4 0.9,-0.4 4.5,0.2 8.9,0.4 13.4,0.6 2.5,0.1 4.9,0.3 7.4,0.4 0.4,0 0.6,-0.1 0.6,-0.5 0,-0.8 0,-1.7 0,-2.5 0,-0.2 -0.2,-0.5 -0.4,-0.6 -0.5,-0.2 -1,-0.3 -1.5,-0.3 -2.3,0.1 -4.7,0.3 -7,0.4 -2.6,0.2 -5.3,0.4 -7.9,0.7 -1.5,0 -2.7,0.1 -4.1,0.3 z m 15.5,-3.7 c 0,0 0,-0.1 0,-0.1 C 79.8,28.5 79.6,28.4 79.5,28.3 79,28 78.4,27.7 77.9,27.4 77.4,27.1 76.8,27 76.2,27.3 74,28.1 71.9,29 69.7,29.8 c -0.4,0.2 -0.8,0.3 -1.3,0.5 0,0 0,-0.1 -0.1,-0.1 2.3,-1.3 4.7,-2.6 7,-3.9 0,-0.1 0,-0.1 0,-0.2 -0.4,-0.2 -0.8,-0.5 -1.2,-0.7 -0.4,-0.2 -0.7,-0.2 -1.1,0.1 -2.4,1.9 -4.7,3.8 -7.1,5.8 -0.1,0.1 -0.2,0.3 -0.4,0.4 0,0.1 0.1,0.1 0.1,0.2 4.8,-1.1 9.5,-2.2 14.3,-3.2 z"
   inkscape:connector-curvature="0"
   style="fill:#ffffff" />
		<path
   id="path8"
   d="m 40.9,47.7 c 0,-0.3 0,-0.5 -0.1,-0.7 -0.2,-0.9 -0.4,-1.8 -0.6,-2.7 -0.1,-0.6 -0.4,-0.9 -0.9,-1.2 -2.1,-1.1 -4.2,-2.3 -6.3,-3.5 -2.9,-1.7 -5.7,-3.6 -8.1,-6 -1.1,-1.1 -2.1,-2.2 -2.6,-3.7 0,-0.1 -0.1,-0.2 -0.1,-0.4 -0.5,-1.6 0.2,-2.7 1.9,-2.9 1.4,-0.2 2.7,0.2 4,0.7 3,1.1 5.5,2.9 7.8,5.1 4.2,3.9 7.1,8.6 8.9,14 1.2,3.5 2.1,7.1 3.2,10.7 1.2,4.1 2.7,8.1 5,11.8 3.4,5.3 7.9,9.4 13.5,12.3 0.6,0.3 1.2,0.6 1.8,0.9 -0.2,0.2 -0.4,0.3 -0.5,0.4 -1.5,0.9 -3,1.8 -4.5,2.6 -0.5,0.3 -0.9,0.3 -1.4,0 C 53.9,79.9 48.7,72.7 46.5,63.3 45.6,59.4 44.9,55.4 44,51.4 43,46.6 41.3,42 38.5,37.9 c -1.9,-2.8 -4.2,-5.2 -7,-7.1 -0.8,-0.5 -1.6,-0.9 -2.6,-1.1 -0.6,-0.1 -0.8,0.2 -0.6,0.7 0.2,0.5 0.5,0.9 0.8,1.3 1.8,1.9 3.9,3.4 6.1,4.7 0.7,0.5 1.5,0.8 2.2,1.3 0.4,0.3 0.9,0.7 1.1,1.1 2.1,3.8 3.5,7.9 4,12.2 0.5,3.9 0.7,7.8 1,11.7 0.4,5.2 1.2,10.2 3.5,15 1.9,4 4.6,7.4 7.8,10.3 0.4,0.3 0.8,0.7 1.2,1.1 -1.2,0.6 -2.2,1.5 -3.6,1.4 -2.1,-0.1 -4.3,0 -6.4,0 -0.7,0 -1.1,-0.2 -1.4,-0.8 C 41.8,85 40.4,80 40.1,74.5 c -0.1,-2.8 0.1,-5.6 0.4,-8.4 0.4,-4.4 1.1,-8.7 1,-13.2 0,-0.6 -0.2,-0.9 -0.7,-1.1 C 35.7,49.6 30.6,47.3 25.8,44.5 21.8,42.2 18,39.8 14.6,36.6 13.3,35.4 12.2,34 11,32.7 c -0.4,-0.4 -0.3,-0.5 0.2,-0.8 1.5,-0.9 3.1,-1.8 4.6,-2.7 0.3,-0.2 0.5,-0.3 0.7,0.1 1.2,2.6 3.1,4.7 5.2,6.5 3.9,3.4 8.2,6 12.7,8.3 1.9,1 3.9,1.9 5.8,2.9 0.2,0.5 0.4,0.6 0.7,0.7 z"
   inkscape:connector-curvature="0"
   style="fill:#010101" />
		<path
   id="path10"
   d="m 56.7,56.5 c 0,-0.3 -0.1,-0.6 -0.1,-1 -0.1,-0.5 0.1,-0.7 0.6,-0.4 0.9,0.4 1.7,0.8 2.6,1.2 5.1,2.5 10.1,5.2 14.6,8.6 2.3,1.8 4.4,3.7 6.1,6.1 0.6,0.8 0.9,1.7 1.4,2.6 0.2,0.4 0.1,0.6 -0.3,0.8 -2.8,1.6 -5.6,3.2 -8.4,4.9 -0.5,0.3 -0.9,0.2 -1.4,0.1 C 68.2,78.3 65,76.5 62.1,74.2 56.8,70 53.2,64.7 51,58.4 49.8,55 48.7,51.5 47.6,48 46.1,43.4 44.3,39 41.4,35.1 38.2,30.7 34,27.2 28.8,25 c -0.9,-0.4 -1.9,-0.7 -2.9,-1.1 -0.1,0 -0.2,-0.1 -0.3,-0.2 0.2,-0.1 0.4,-0.3 0.6,-0.4 1.2,-0.7 2.4,-1.4 3.5,-2.1 0.5,-0.3 0.9,-0.3 1.3,0 8.2,4.2 14,10.6 17.3,19.3 1.3,3.5 2.3,7.1 3.3,10.8 1.1,4.1 2.5,8 4.6,11.7 2.6,4.5 6.1,8.3 10.6,11 1.7,1 3.5,1.8 5.5,2 0.7,0.1 1.4,0 2.1,-0.1 0.7,-0.1 1,-0.7 1.1,-1.4 0,-0.7 -0.2,-1.4 -0.6,-2 -1.1,-1.9 -2.7,-3.4 -4.4,-4.8 -3.6,-2.9 -7.6,-5.2 -11.6,-7.3 -0.3,-0.2 -0.7,-0.3 -1.1,-0.4 0.2,0.4 0.3,0.7 0.5,1.1 0.2,0.5 0.5,1 0.7,1.5 0.5,1.5 1.5,2.4 2.9,3.2 2.1,1.1 4.1,2.4 5.9,4.1 0.7,0.7 1.4,1.5 2.1,2.2 0.1,0.2 0.2,0.4 0.3,0.6 0.2,0.6 -0.2,1.1 -0.8,0.9 C 68.7,73.4 67.9,73.2 67.2,72.8 64.4,71.3 62.3,69.1 60.4,66.6 57.2,62.6 55.3,57.9 54.1,53 53.2,49.2 52.5,45.4 51.7,41.6 50.8,37.4 49.5,33.4 47.3,29.7 44.7,25.4 41.3,21.8 37.1,19 c -0.3,-0.2 -0.6,-0.4 -1,-0.7 -0.4,-0.3 -0.4,-0.4 0,-0.6 1.7,-1 3.3,-1.9 5,-2.9 0.1,0 0.1,-0.1 0.2,-0.1 1.4,-0.9 1.3,-0.7 2.4,0.2 5.9,5.4 9.5,12 10.5,20 0.4,3.4 0.6,6.9 0.9,10.3 0.3,3.7 0.6,7.5 1.6,11.1 -0.1,0 -0.1,0.1 0,0.2 0,0 0,0 0,0 z"
   inkscape:connector-curvature="0"
   style="fill:#010101" />
		<path
   id="path12"
   d="m 85,68 c -0.5,-0.5 -0.8,-0.8 -1.2,-1.2 -3.3,-3.2 -7,-5.7 -10.9,-8 -5.1,-2.9 -10.4,-5.4 -15.7,-7.7 -0.4,-0.2 -0.6,0 -0.6,0.3 0,0.3 -0.1,0.7 -0.1,1 -0.1,0 -0.1,0 -0.2,0 -0.1,-0.4 -0.1,-0.8 -0.1,-1.2 -0.1,-3.4 0.1,-6.8 0.5,-10.2 0.5,-4.3 1,-8.5 0.8,-12.8 -0.2,-4.6 -1.3,-9 -3.5,-13.1 -0.1,-0.3 -0.3,-0.6 -0.4,-0.9 0,0 0.1,-0.1 0.1,-0.1 0.2,0.1 0.4,0.1 0.6,0.2 2.8,1.5 5.7,3.1 8.5,4.6 0.6,0.3 0.7,0.7 0.7,1.3 -0.2,3.3 -0.9,6.5 -1.8,9.6 -1,3.6 -2.2,7.2 -3.3,10.8 -0.1,0.2 -0.1,0.4 -0.1,0.6 0.1,-0.2 0.2,-0.4 0.2,-0.5 0.2,-0.5 0.4,-0.6 0.9,-0.4 1.8,0.6 3.6,1.1 5.4,1.7 5.9,1.9 11.7,3.8 17.6,5.7 0.7,0.2 1.4,0.5 2.2,0.8 0.3,0.1 0.5,0.3 0.5,0.7 0,1.6 0,3.2 0,4.8 0,0.4 -0.1,0.5 -0.6,0.3 -2.3,-1 -4.5,-2.2 -6.8,-3.1 -6,-2.4 -12,-4.7 -18,-7 -0.5,-0.2 -1,-0.4 -1.6,-0.6 -0.3,-0.1 -0.5,0 -0.5,0.3 -0.2,0.8 -0.3,1.6 -0.5,2.4 -0.1,0.5 0.2,0.6 0.5,0.8 1.9,0.8 3.9,1.6 5.8,2.5 4.9,2.1 9.9,4.1 14.6,6.8 2.1,1.2 4.1,2.4 6.1,3.6 0.6,0.4 0.9,0.9 0.9,1.6 -0.1,1.9 0,3.9 0,5.8 0.1,0.2 0,0.3 0,0.6 z"
   inkscape:connector-curvature="0"
   style="fill:#010101" />
		<path
   id="path14"
   d="m 37.5,65.4 c -1,-0.3 -2,-0.5 -3,-0.7 -7.9,-2 -15.9,-3.9 -23.8,-5.9 -0.5,-0.1 -0.7,-0.4 -0.7,-0.9 0,-1.4 0,-2.8 0,-4.2 0,-0.2 0,-0.5 0,-0.7 0.2,0.1 0.4,0.1 0.5,0.1 7.8,3.1 15.8,5.6 23.8,8 1.3,0.4 2.6,0.8 3.9,1.3 0.4,0.2 0.7,0 0.8,-0.4 0.2,-0.6 0.4,-1.1 0.6,-1.7 0.2,-0.6 0.2,-0.7 -0.4,-0.9 -2,-0.7 -4,-1.4 -5.9,-2.2 -5.8,-2.1 -11.6,-4.3 -17.2,-7 -1.9,-0.9 -3.7,-1.8 -5.6,-2.8 -0.4,-0.2 -0.6,-0.5 -0.6,-1.1 0,-1.8 0,-3.7 0,-5.5 0,-0.2 0,-0.4 0.1,-0.7 0.2,0.1 0.4,0.2 0.5,0.2 4.9,3.7 10.2,6.6 15.8,9.1 4.6,2.1 9.4,4 14.1,6 0.7,0.3 0.7,0.3 0.6,1.1 -0.4,3 -1.4,5.9 -2.2,8.8 -1.1,3.6 -2.2,7.2 -3.1,10.8 -0.7,2.8 -1,5.8 -1,8.7 0,0.2 -0.1,0.5 -0.1,0.7 -0.2,-0.1 -0.5,-0.2 -0.7,-0.3 -1.6,-0.9 -3.2,-1.9 -4.7,-2.8 -0.6,-0.4 -0.6,-0.4 -0.3,-1.1 2.2,-4.8 4.9,-9.2 7.4,-13.8 0.3,-0.4 0.7,-1.2 1.2,-2.1 z"
   inkscape:connector-curvature="0"
   style="fill:#010101" />
		<path
   id="path16"
   d="m 64.4,32.4 c 1.4,-0.1 2.6,-0.3 3.8,-0.4 2.6,-0.2 5.3,-0.5 7.9,-0.7 2.3,-0.2 4.7,-0.3 7,-0.4 0.5,0 1,0.1 1.5,0.3 0.2,0.1 0.4,0.4 0.4,0.6 0,0.8 0,1.7 0,2.5 0,0.4 -0.2,0.6 -0.6,0.5 C 81.9,34.7 79.5,34.5 77,34.4 72.5,34.2 68.1,34 63.6,33.8 c -0.4,0 -0.7,0.1 -0.9,0.4 -0.2,0.4 -0.5,0.7 -0.8,1.1 0.6,0.1 1.1,0.2 1.6,0.3 4.8,0.7 9.7,1.4 14.5,2.1 2.1,0.3 4.2,0.7 6.3,1 0.4,0.1 0.6,0.2 0.6,0.6 0,1.2 0,2.4 0,3.5 0,0.9 0,0.9 -0.9,0.7 C 81.1,42.8 78.2,42 75.2,41.3 70.6,40.2 66,39.1 61.4,38.1 61,38 60.6,37.8 60.3,37.9 c -0.3,0.1 -0.6,0.5 -1,0.7 0.1,-0.2 0.1,-0.4 0.2,-0.6 1.6,-3 3.2,-5.9 4.8,-8.9 1.2,-2.2 2.3,-4.3 3.4,-6.5 0.2,-0.4 0.4,-0.5 0.8,-0.3 0.8,0.5 1.6,0.9 2.4,1.3 0.5,0.3 0.5,0.4 0.1,0.8 -2.1,2.4 -4.2,4.8 -6.3,7.2 0.1,0.3 0,0.5 -0.3,0.8 z"
   inkscape:connector-curvature="0"
   style="fill:#010101" />
		<path
   id="path18"
   d="m 31.8,71.6 c 0,0 0,-0.1 0,0 -3,0.6 -6.1,1.2 -9.1,1.9 -2,0.4 -4,0.9 -6,1.3 -0.5,0.1 -1,0 -1.5,-0.3 -1.2,-0.7 -2.4,-1.4 -3.5,-2.1 -0.2,-0.1 -0.3,-0.2 -0.4,-0.4 0.8,-0.1 1.6,-0.1 2.4,-0.2 5.3,-0.4 10.6,-0.7 15.9,-1.1 1,-0.1 2,-0.2 2.9,-0.3 0.7,-0.1 1.1,-0.5 1.6,-1.1 -1,0 -1.8,-0.1 -2.7,-0.1 C 26.5,69 21.7,68.8 16.8,68.6 14.7,68.5 12.6,68.3 10.5,68.2 10.1,68.2 10,68 10,67.7 c 0,-1.3 0,-2.5 0,-3.8 0,-0.4 0.2,-0.5 0.6,-0.4 2.7,0.5 5.5,0.9 8.2,1.4 3.9,0.6 7.8,1.2 11.7,1.7 1.7,0.2 3.3,0.5 5,0.7 0.2,0 0.4,0.1 0.4,0.2 0,0.2 -0.1,0.4 -0.2,0.6 -2.1,2.5 -4.1,5 -6.2,7.5 -1.2,1.5 -2.5,2.9 -3.7,4.4 -0.5,0.6 -0.5,0.6 -1.2,0.2 -0.5,-0.3 -0.9,-0.5 -1.4,-0.8 -0.5,-0.3 -0.5,-0.4 -0.1,-0.7 1.8,-1.4 3.6,-2.8 5.4,-4.3 0.6,-0.7 3,-2.5 3.3,-2.8 z"
   inkscape:connector-curvature="0"
   style="fill:#010101" />
		<path
   id="path20"
   d="m 79.9,28.7 c -4.7,1 -9.5,2.1 -14.2,3.1 0,-0.1 -0.1,-0.1 -0.1,-0.2 0.1,-0.2 0.2,-0.3 0.4,-0.4 2.4,-1.9 4.7,-3.8 7.1,-5.8 0.3,-0.3 0.7,-0.3 1.1,-0.1 0.4,0.3 0.8,0.5 1.2,0.7 0,0.1 0,0.1 0,0.2 -2.3,1.3 -4.7,2.6 -7,3.9 0,0 0,0.1 0.1,0.1 0.4,-0.2 0.8,-0.3 1.3,-0.5 2.2,-0.8 4.3,-1.6 6.5,-2.5 0.6,-0.2 1.1,-0.2 1.7,0.1 0.5,0.3 1.1,0.6 1.6,0.9 0.1,0.1 0.3,0.2 0.4,0.3 -0.1,0.1 -0.1,0.2 -0.1,0.2 z"
   inkscape:connector-curvature="0"
   style="fill:#010101" />
		<path
   id="path22"
   d="m 30.4,72.3 c 0.2,0.1 -0.5,0.5 -0.6,0.6 -1.6,0.9 -2.6,1.6 -4.2,2.4 -1.4,0.8 -2.8,1.5 -4.2,2.3 -0.4,0.2 -0.7,0.2 -1.1,0 -0.4,-0.3 -0.8,-0.5 -1.2,-0.7 -0.1,-0.1 -0.3,-0.2 -0.5,-0.4 4.1,-1.5 6.2,-2.3 10.3,-3.8 0.5,-0.2 1.4,-0.5 1.5,-0.4 z"
   inkscape:connector-curvature="0" />
	</g>
</g><g
     id="Layer_1_1_">
	<path
   id="path28"
   d="M 3,48.7 V 75 L 46.7,100.3 90.5,75.1 V 28.7 L 46.8,3.5 3,28.7 v 20.5 h 9.2 V 33.5 l 34.6,-19.9 34.6,20 V 70.3 L 46.7,90.2 12.1,70.2 V 48.7 Z"
   inkscape:connector-curvature="0"
   style="fill:#010101" />
</g></g>
</svg>